solid Onshape
  facet normal 0 0 1
    outer loop
      vertex 2 2 2
      vertex 28 2 2
      vertex 2 28 2
    endloop
  endfacet
  facet normal 0 0 1
    outer loop
      vertex 28 2 2
      vertex 28 28 2
      vertex 2 28 2
    endloop
  endfacet
  facet normal 0 0 -1
    outer loop
      vertex 28 2 28
      vertex 2 2 28
      vertex 28 28 28
    endloop
  endfacet
  facet normal 0 0 -1
    outer loop
      vertex 2 2 28
      vertex 2 28 28
      vertex 28 28 28
    endloop
  endfacet
  facet normal 0 1 0
    outer loop
      vertex 0 30 30
      vertex 30 30 30
      vertex 0 30 0
    endloop
  endfacet
  facet normal 0 1 0
    outer loop
      vertex 30 30 30
      vertex 30 30 0
      vertex 0 30 0
    endloop
  endfacet
  facet normal 1 0 0
    outer loop
      vertex 30 30 30
      vertex 30 0 30
      vertex 30 30 0
    endloop
  endfacet
  facet normal 1 0 0
    outer loop
      vertex 30 0 30
      vertex 30 0 0
      vertex 30 30 0
    endloop
  endfacet
  facet normal 0 1 0
    outer loop
      vertex 2 2 28
      vertex 28 2 28
      vertex 2 2 2
    endloop
  endfacet
  facet normal 0 1 0
    outer loop
      vertex 28 2 28
      vertex 28 2 2
      vertex 2 2 2
    endloop
  endfacet
  facet normal -1 0 0
    outer loop
      vertex 0 0 30
      vertex 0 30 30
      vertex 0 0 0
    endloop
  endfacet
  facet normal -1 0 0
    outer loop
      vertex 0 30 30
      vertex 0 30 0
      vertex 0 0 0
    endloop
  endfacet
  facet normal 0 0 1
    outer loop
      vertex 30 0 30
      vertex 30 30 30
      vertex 0 0 30
    endloop
  endfacet
  facet normal 0 0 1
    outer loop
      vertex 30 30 30
      vertex 0 30 30
      vertex 0 0 30
    endloop
  endfacet
  facet normal 0 -1 0
    outer loop
      vertex 30 0 30
      vertex 0 0 30
      vertex 30 0 0
    endloop
  endfacet
  facet normal 0 -1 0
    outer loop
      vertex 0 0 30
      vertex 0 0 0
      vertex 30 0 0
    endloop
  endfacet
  facet normal -1 0 0
    outer loop
      vertex 28 2 28
      vertex 28 28 28
      vertex 28 2 2
    endloop
  endfacet
  facet normal -1 0 0
    outer loop
      vertex 28 28 28
      vertex 28 28 2
      vertex 28 2 2
    endloop
  endfacet
  facet normal 0 0 -1
    outer loop
      vertex 30 30 0
      vertex 30 0 0
      vertex 0 30 0
    endloop
  endfacet
  facet normal 0 0 -1
    outer loop
      vertex 30 0 0
      vertex 0 0 0
      vertex 0 30 0
    endloop
  endfacet
  facet normal 1 0 0
    outer loop
      vertex 2 28 28
      vertex 2 2 28
      vertex 2 28 2
    endloop
  endfacet
  facet normal 1 0 0
    outer loop
      vertex 2 2 28
      vertex 2 2 2
      vertex 2 28 2
    endloop
  endfacet
  facet normal 0 -1 0
    outer loop
      vertex 28 28 28
      vertex 2 28 28
      vertex 28 28 2
    endloop
  endfacet
  facet normal 0 -1 0
    outer loop
      vertex 2 28 28
      vertex 2 28 2
      vertex 28 28 2
    endloop
  endfacet
endsolid Onshape
