solid Onshape
  facet normal -1 -4.36659e-17 0
    outer loop
      vertex 0 0 23.4088
      vertex -1.73472e-15 39.7272 0
      vertex 0 0 0
    endloop
  endfacet
  facet normal 0.599344 0.406379 0.689669
    outer loop
      vertex 0 0 23.4088
      vertex 26.9366 0 0
      vertex -1.73472e-15 39.7272 0
    endloop
  endfacet
  facet normal 0 -1 0
    outer loop
      vertex 0 0 23.4088
      vertex 0 0 0
      vertex 26.9366 0 0
    endloop
  endfacet
  facet normal 0 0 -1
    outer loop
      vertex -1.73472e-15 39.7272 0
      vertex 26.9366 0 0
      vertex 0 0 0
    endloop
  endfacet
endsolid Onshape
