solid Onshape
  facet normal -1 -1.63399e-16 0
    outer loop
      vertex 0 0 28.6495
      vertex -5.20417e-15 31.8494 0
      vertex 0 0 0
    endloop
  endfacet
  facet normal 0.592167 0.538907 0.599097
    outer loop
      vertex 0 0 28.6495
      vertex 28.9848 0 0
      vertex -5.20417e-15 31.8494 0
    endloop
  endfacet
  facet normal 0 -1 0
    outer loop
      vertex 0 0 28.6495
      vertex 0 0 0
      vertex 28.9848 0 0
    endloop
  endfacet
  facet normal 0 0 -1
    outer loop
      vertex 28.9848 0 0
      vertex 0 0 0
      vertex -5.20417e-15 31.8494 0
    endloop
  endfacet
  facet normal 0 -1 0
    outer loop
      vertex -3.46945e-15 0 -36.6185
      vertex 28.9848 0 0
      vertex 0 0 0
    endloop
  endfacet
  facet normal 0.63826 0.580854 -0.505205
    outer loop
      vertex -3.46945e-15 0 -36.6185
      vertex -5.20417e-15 31.8494 0
      vertex 28.9848 0 0
    endloop
  endfacet
  facet normal -1 -1.63399e-16 9.47457e-17
    outer loop
      vertex -3.46945e-15 0 -36.6185
      vertex 0 0 0
      vertex -5.20417e-15 31.8494 0
    endloop
  endfacet
  facet normal 0 0 1
    outer loop
      vertex -5.20417e-15 31.8494 0
      vertex 0 0 0
      vertex 28.9848 0 0
    endloop
  endfacet
endsolid Onshape
