solid Onshape
  facet normal -1 0 0
    outer loop
      vertex -10 10 0
      vertex -10 10 10
      vertex -10 20 0
    endloop
  endfacet
  facet normal -1 0 0
    outer loop
      vertex -10 10 10
      vertex -10 20 10
      vertex -10 20 0
    endloop
  endfacet
  facet normal -1 0 0
    outer loop
      vertex -10 10 30
      vertex -10 20 30
      vertex -10 10 20
    endloop
  endfacet
  facet normal -1 0 0
    outer loop
      vertex -10 20 30
      vertex -10 20 20
      vertex -10 10 20
    endloop
  endfacet
  facet normal -1 0 0
    outer loop
      vertex -10 30 20
      vertex -10 30 10
      vertex -10 20 20
    endloop
  endfacet
  facet normal -1 0 0
    outer loop
      vertex -10 30 10
      vertex -10 20 10
      vertex -10 20 20
    endloop
  endfacet
  facet normal -1 0 0
    outer loop
      vertex -10 20 20
      vertex -10 20 10
      vertex -10 10 20
    endloop
  endfacet
  facet normal -1 0 0
    outer loop
      vertex -10 20 10
      vertex -10 10 10
      vertex -10 10 20
    endloop
  endfacet
  facet normal -1 0 0
    outer loop
      vertex -10 10 20
      vertex -10 10 10
      vertex -10 -1.73472e-15 20
    endloop
  endfacet
  facet normal -1 0 0
    outer loop
      vertex -10 10 10
      vertex -10 -1.73472e-15 10
      vertex -10 -1.73472e-15 20
    endloop
  endfacet
  facet normal 1 0 0
    outer loop
      vertex 10 20 30
      vertex 10 10 30
      vertex 10 20 20
    endloop
  endfacet
  facet normal 1 0 0
    outer loop
      vertex 10 10 30
      vertex 10 10 20
      vertex 10 20 20
    endloop
  endfacet
  facet normal 1 0 0
    outer loop
      vertex 10 10 0
      vertex 10 20 0
      vertex 10 10 10
    endloop
  endfacet
  facet normal 1 0 0
    outer loop
      vertex 10 20 0
      vertex 10 20 10
      vertex 10 10 10
    endloop
  endfacet
  facet normal 1 0 0
    outer loop
      vertex 10 30 10
      vertex 10 30 20
      vertex 10 20 10
    endloop
  endfacet
  facet normal 1 0 0
    outer loop
      vertex 10 30 20
      vertex 10 20 20
      vertex 10 20 10
    endloop
  endfacet
  facet normal 1 0 0
    outer loop
      vertex 10 20 10
      vertex 10 20 20
      vertex 10 10 10
    endloop
  endfacet
  facet normal 1 0 0
    outer loop
      vertex 10 20 20
      vertex 10 10 20
      vertex 10 10 10
    endloop
  endfacet
  facet normal 1 0 0
    outer loop
      vertex 10 10 10
      vertex 10 10 20
      vertex 10 -1.73472e-15 10
    endloop
  endfacet
  facet normal 1 0 0
    outer loop
      vertex 10 10 20
      vertex 10 -1.73472e-15 20
      vertex 10 -1.73472e-15 10
    endloop
  endfacet
  facet normal 0 0 1
    outer loop
      vertex 10 -1.73472e-15 20
      vertex 10 10 20
      vertex -10 -1.73472e-15 20
    endloop
  endfacet
  facet normal 0 0 1
    outer loop
      vertex 10 10 20
      vertex -10 10 20
      vertex -10 -1.73472e-15 20
    endloop
  endfacet
  facet normal 0 -1 0
    outer loop
      vertex 10 10 20
      vertex 10 10 30
      vertex -10 10 20
    endloop
  endfacet
  facet normal 0 -1 0
    outer loop
      vertex 10 10 30
      vertex -10 10 30
      vertex -10 10 20
    endloop
  endfacet
  facet normal 0 0 -1
    outer loop
      vertex 10 20 0
      vertex 10 10 0
      vertex -10 20 0
    endloop
  endfacet
  facet normal 0 0 -1
    outer loop
      vertex 10 10 0
      vertex -10 10 0
      vertex -10 20 0
    endloop
  endfacet
  facet normal 0 1 0
    outer loop
      vertex 10 20 30
      vertex 10 20 20
      vertex -10 20 30
    endloop
  endfacet
  facet normal 0 1 0
    outer loop
      vertex 10 20 20
      vertex -10 20 20
      vertex -10 20 30
    endloop
  endfacet
  facet normal 0 -1 0
    outer loop
      vertex 10 10 0
      vertex 10 10 10
      vertex -10 10 0
    endloop
  endfacet
  facet normal 0 -1 0
    outer loop
      vertex 10 10 10
      vertex -10 10 10
      vertex -10 10 0
    endloop
  endfacet
  facet normal 0 0 -1
    outer loop
      vertex 10 10 10
      vertex 10 -1.73472e-15 10
      vertex -10 10 10
    endloop
  endfacet
  facet normal 0 0 -1
    outer loop
      vertex 10 -1.73472e-15 10
      vertex -10 -1.73472e-15 10
      vertex -10 10 10
    endloop
  endfacet
  facet normal 0 -1 0
    outer loop
      vertex 10 -1.73472e-15 10
      vertex 10 -1.73472e-15 20
      vertex -10 -1.73472e-15 10
    endloop
  endfacet
  facet normal 0 -1 0
    outer loop
      vertex 10 -1.73472e-15 20
      vertex -10 -1.73472e-15 20
      vertex -10 -1.73472e-15 10
    endloop
  endfacet
  facet normal 0 1 0
    outer loop
      vertex 10 20 10
      vertex 10 20 0
      vertex -10 20 10
    endloop
  endfacet
  facet normal 0 1 0
    outer loop
      vertex 10 20 0
      vertex -10 20 0
      vertex -10 20 10
    endloop
  endfacet
  facet normal 0 0 -1
    outer loop
      vertex 10 30 10
      vertex 10 20 10
      vertex -10 30 10
    endloop
  endfacet
  facet normal 0 0 -1
    outer loop
      vertex 10 20 10
      vertex -10 20 10
      vertex -10 30 10
    endloop
  endfacet
  facet normal 0 1 0
    outer loop
      vertex 10 30 20
      vertex 10 30 10
      vertex -10 30 20
    endloop
  endfacet
  facet normal 0 1 0
    outer loop
      vertex 10 30 10
      vertex -10 30 10
      vertex -10 30 20
    endloop
  endfacet
  facet normal 0 0 1
    outer loop
      vertex 10 20 20
      vertex 10 30 20
      vertex -10 20 20
    endloop
  endfacet
  facet normal 0 0 1
    outer loop
      vertex 10 30 20
      vertex -10 30 20
      vertex -10 20 20
    endloop
  endfacet
  facet normal 0 0 1
    outer loop
      vertex 10 10 30
      vertex 10 20 30
      vertex -10 10 30
    endloop
  endfacet
  facet normal 0 0 1
    outer loop
      vertex 10 20 30
      vertex -10 20 30
      vertex -10 10 30
    endloop
  endfacet
endsolid Onshape
