solid Onshape
  facet normal -1 0 0
    outer loop
      vertex -5 -5 10
      vertex -5 0 10
      vertex -5 -5 5
    endloop
  endfacet
  facet normal -1 0 0
    outer loop
      vertex -5 0 10
      vertex -5 0 0
      vertex -5 -5 5
    endloop
  endfacet
  facet normal -1 0 0
    outer loop
      vertex -5 -5 5
      vertex -5 0 0
      vertex -5 -10 5
    endloop
  endfacet
  facet normal -1 0 0
    outer loop
      vertex -5 0 0
      vertex -5 -10 0
      vertex -5 -10 5
    endloop
  endfacet
  facet normal 1 0 0
    outer loop
      vertex 5 -10 5
      vertex 5 -10 0
      vertex 5 -5 5
    endloop
  endfacet
  facet normal 1 0 0
    outer loop
      vertex 5 -10 0
      vertex 5 0 0
      vertex 5 -5 5
    endloop
  endfacet
  facet normal 1 0 0
    outer loop
      vertex 5 -5 5
      vertex 5 0 0
      vertex 5 -5 10
    endloop
  endfacet
  facet normal 1 0 0
    outer loop
      vertex 5 0 0
      vertex 5 0 10
      vertex 5 -5 10
    endloop
  endfacet
  facet normal 0 -1 0
    outer loop
      vertex 5 -10 0
      vertex 5 -10 5
      vertex -5 -10 0
    endloop
  endfacet
  facet normal 0 -1 0
    outer loop
      vertex 5 -10 5
      vertex -5 -10 5
      vertex -5 -10 0
    endloop
  endfacet
  facet normal 0 0 1
    outer loop
      vertex 5 -10 5
      vertex 5 -5 5
      vertex -5 -10 5
    endloop
  endfacet
  facet normal 0 0 1
    outer loop
      vertex 5 -5 5
      vertex -5 -5 5
      vertex -5 -10 5
    endloop
  endfacet
  facet normal 0 0 -1
    outer loop
      vertex 5 0 0
      vertex 5 -10 0
      vertex -5 0 0
    endloop
  endfacet
  facet normal 0 0 -1
    outer loop
      vertex 5 -10 0
      vertex -5 -10 0
      vertex -5 0 0
    endloop
  endfacet
  facet normal 0 1 0
    outer loop
      vertex 5 0 10
      vertex 5 0 0
      vertex -5 0 10
    endloop
  endfacet
  facet normal 0 1 0
    outer loop
      vertex 5 0 0
      vertex -5 0 0
      vertex -5 0 10
    endloop
  endfacet
  facet normal 0 0 1
    outer loop
      vertex 5 -5 10
      vertex 5 0 10
      vertex -5 -5 10
    endloop
  endfacet
  facet normal 0 0 1
    outer loop
      vertex 5 0 10
      vertex -5 0 10
      vertex -5 -5 10
    endloop
  endfacet
  facet normal 0 -1 0
    outer loop
      vertex 5 -5 5
      vertex 5 -5 10
      vertex -5 -5 5
    endloop
  endfacet
  facet normal 0 -1 0
    outer loop
      vertex 5 -5 10
      vertex -5 -5 10
      vertex -5 -5 5
    endloop
  endfacet
endsolid Onshape
